# xmcd
#
# Track frame offsets:
#	150
#	12166
#	25683
#	38538
#	54235
#	65448
#	81977
#	98735
#	109582
#	122043
#	137960
#	145860
#
# Disc length: 2134 seconds
#
# Revision: 1
# Processed by: cddbd v1.5.2PL0 Copyright (c) Steve Scherf et al.
# Submitted via: audiograbber 1.83.01
#
DISCID=9508540c
DTITLE=Crown Electric Company - Crown Electric Company
DYEAR=1997
DGENRE=Country
TTITLE0=Hot Rod Gang
TTITLE1=Pretty Little Lights in Town
TTITLE2=Standing On A Rock
TTITLE3=She Thinks I Still Care
TTITLE4=Tear It Up
TTITLE5=Trouble Bound
TTITLE6=I Don't Do Gentle
TTITLE7=Barnburner
TTITLE8=All Tore Up
TTITLE9=Why Don't Cha
TTITLE10=Black Slacks
TTITLE11=Leopard Skin Print
EXTD=
EXTT0=
EXTT1=
EXTT2=
EXTT3=
EXTT4=
EXTT5=
EXTT6=
EXTT7=
EXTT8=
EXTT9=
EXTT10=
EXTT11=
PLAYORDER=
